<svg width="57" height="114" viewBox="0 0 57 114" fill="none" xmlns="http://www.w3.org/2000/svg">
<mask id="path-1-inside-1_2_197" fill="white">
<path fill-rule="evenodd" clip-rule="evenodd" d="M0.187988 113.812C0.188173 113.812 0.188357 113.812 0.188541 113.812C31.5647 113.812 57.0001 88.3763 57.0001 57.0001C57.0001 25.6239 31.5647 0.188477 0.188541 0.188477C0.188357 0.188477 0.188173 0.188477 0.187988 0.188477V113.812Z"/>
</mask>
<path d="M0.187988 113.812H-0.812012V114.812H0.187988V113.812ZM0.187988 0.188477V-0.811523H-0.812012V0.188477H0.187988ZM0.188541 112.812C0.188541 112.812 0.188541 112.812 0.18854 112.812C0.18854 112.812 0.18854 112.812 0.188539 112.812C0.188539 112.812 0.188539 112.812 0.188538 112.812C0.188538 112.812 0.188537 112.812 0.188537 112.812C0.188537 112.812 0.188536 112.812 0.188536 112.812C0.188536 112.812 0.188535 112.812 0.188535 112.812C0.188535 112.812 0.188534 112.812 0.188534 112.812C0.188533 112.812 0.188533 112.812 0.188533 112.812C0.188532 112.812 0.188532 112.812 0.188532 112.812C0.188531 112.812 0.188531 112.812 0.188531 112.812C0.18853 112.812 0.18853 112.812 0.18853 112.812C0.188529 112.812 0.188529 112.812 0.188528 112.812C0.188528 112.812 0.188528 112.812 0.188527 112.812C0.188527 112.812 0.188527 112.812 0.188526 112.812C0.188526 112.812 0.188526 112.812 0.188525 112.812C0.188525 112.812 0.188524 112.812 0.188524 112.812C0.188524 112.812 0.188523 112.812 0.188523 112.812C0.188523 112.812 0.188522 112.812 0.188522 112.812C0.188522 112.812 0.188521 112.812 0.188521 112.812C0.188521 112.812 0.18852 112.812 0.18852 112.812C0.188519 112.812 0.188519 112.812 0.188519 112.812C0.188518 112.812 0.188518 112.812 0.188518 112.812C0.188517 112.812 0.188517 112.812 0.188517 112.812C0.188516 112.812 0.188516 112.812 0.188515 112.812C0.188515 112.812 0.188515 112.812 0.188514 112.812C0.188514 112.812 0.188514 112.812 0.188513 112.812C0.188513 112.812 0.188513 112.812 0.188512 112.812C0.188512 112.812 0.188512 112.812 0.188511 112.812C0.188511 112.812 0.18851 112.812 0.18851 112.812C0.18851 112.812 0.188509 112.812 0.188509 112.812C0.188509 112.812 0.188508 112.812 0.188508 112.812C0.188508 112.812 0.188507 112.812 0.188507 112.812C0.188506 112.812 0.188506 112.812 0.188506 112.812C0.188505 112.812 0.188505 112.812 0.188505 112.812C0.188504 112.812 0.188504 112.812 0.188504 112.812C0.188503 112.812 0.188503 112.812 0.188503 112.812C0.188502 112.812 0.188502 112.812 0.188501 112.812C0.188501 112.812 0.188501 112.812 0.1885 112.812C0.1885 112.812 0.1885 112.812 0.188499 112.812C0.188499 112.812 0.188499 112.812 0.188498 112.812C0.188498 112.812 0.188497 112.812 0.188497 112.812C0.188497 112.812 0.188496 112.812 0.188496 112.812C0.188496 112.812 0.188495 112.812 0.188495 112.812C0.188495 112.812 0.188494 112.812 0.188494 112.812C0.188494 112.812 0.188493 112.812 0.188493 112.812C0.188492 112.812 0.188492 112.812 0.188492 112.812C0.188491 112.812 0.188491 112.812 0.188491 112.812C0.18849 112.812 0.18849 112.812 0.18849 112.812C0.188489 112.812 0.188489 112.812 0.188488 112.812C0.188488 112.812 0.188488 112.812 0.188487 112.812C0.188487 112.812 0.188487 112.812 0.188486 112.812C0.188486 112.812 0.188486 112.812 0.188485 112.812C0.188485 112.812 0.188485 112.812 0.188484 112.812C0.188484 112.812 0.188483 112.812 0.188483 112.812C0.188483 112.812 0.188482 112.812 0.188482 112.812C0.188482 112.812 0.188481 112.812 0.188481 112.812C0.188481 112.812 0.18848 112.812 0.18848 112.812C0.188479 112.812 0.188479 112.812 0.188479 112.812C0.188478 112.812 0.188478 112.812 0.188478 112.812C0.188477 112.812 0.188477 112.812 0.188477 112.812C0.188476 112.812 0.188476 112.812 0.188476 112.812C0.188475 112.812 0.188475 112.812 0.188474 112.812C0.188474 112.812 0.188474 112.812 0.188473 112.812C0.188473 112.812 0.188473 112.812 0.188472 112.812C0.188472 112.812 0.188472 112.812 0.188471 112.812C0.188471 112.812 0.18847 112.812 0.18847 112.812C0.18847 112.812 0.188469 112.812 0.188469 112.812C0.188469 112.812 0.188468 112.812 0.188468 112.812C0.188468 112.812 0.188467 112.812 0.188467 112.812C0.188467 112.812 0.188466 112.812 0.188466 112.812C0.188465 112.812 0.188465 112.812 0.188465 112.812C0.188464 112.812 0.188464 112.812 0.188464 112.812C0.188463 112.812 0.188463 112.812 0.188463 112.812C0.188462 112.812 0.188462 112.812 0.188461 112.812C0.188461 112.812 0.188461 112.812 0.18846 112.812C0.18846 112.812 0.18846 112.812 0.188459 112.812C0.188459 112.812 0.188459 112.812 0.188458 112.812C0.188458 112.812 0.188458 112.812 0.188457 112.812C0.188457 112.812 0.188456 112.812 0.188456 112.812C0.188456 112.812 0.188455 112.812 0.188455 112.812C0.188455 112.812 0.188454 112.812 0.188454 112.812C0.188454 112.812 0.188453 112.812 0.188453 112.812C0.188452 112.812 0.188452 112.812 0.188452 112.812C0.188451 112.812 0.188451 112.812 0.188451 112.812C0.18845 112.812 0.18845 112.812 0.18845 112.812C0.188449 112.812 0.188449 112.812 0.188449 112.812C0.188448 112.812 0.188448 112.812 0.188447 112.812C0.188447 112.812 0.188447 112.812 0.188446 112.812C0.188446 112.812 0.188446 112.812 0.188445 112.812C0.188445 112.812 0.188445 112.812 0.188444 112.812C0.188444 112.812 0.188443 112.812 0.188443 112.812C0.188443 112.812 0.188442 112.812 0.188442 112.812C0.188442 112.812 0.188441 112.812 0.188441 112.812C0.188441 112.812 0.18844 112.812 0.18844 112.812C0.18844 112.812 0.188439 112.812 0.188439 112.812C0.188438 112.812 0.188438 112.812 0.188438 112.812C0.188437 112.812 0.188437 112.812 0.188437 112.812C0.188436 112.812 0.188436 112.812 0.188436 112.812C0.188435 112.812 0.188435 112.812 0.188434 112.812C0.188434 112.812 0.188434 112.812 0.188433 112.812C0.188433 112.812 0.188433 112.812 0.188432 112.812C0.188432 112.812 0.188432 112.812 0.188431 112.812C0.188431 112.812 0.18843 112.812 0.18843 112.812C0.18843 112.812 0.188429 112.812 0.188429 112.812C0.188429 112.812 0.188428 112.812 0.188428 112.812C0.188428 112.812 0.188427 112.812 0.188427 112.812C0.188427 112.812 0.188426 112.812 0.188426 112.812C0.188425 112.812 0.188425 112.812 0.188425 112.812C0.188424 112.812 0.188424 112.812 0.188424 112.812C0.188423 112.812 0.188423 112.812 0.188423 112.812C0.188422 112.812 0.188422 112.812 0.188421 112.812C0.188421 112.812 0.188421 112.812 0.18842 112.812C0.18842 112.812 0.18842 112.812 0.188419 112.812C0.188419 112.812 0.188419 112.812 0.188418 112.812C0.188418 112.812 0.188418 112.812 0.188417 112.812C0.188417 112.812 0.188416 112.812 0.188416 112.812C0.188416 112.812 0.188415 112.812 0.188415 112.812C0.188415 112.812 0.188414 112.812 0.188414 112.812C0.188414 112.812 0.188413 112.812 0.188413 112.812C0.188412 112.812 0.188412 112.812 0.188412 112.812C0.188411 112.812 0.188411 112.812 0.188411 112.812C0.18841 112.812 0.18841 112.812 0.18841 112.812C0.188409 112.812 0.188409 112.812 0.188409 112.812C0.188408 112.812 0.188408 112.812 0.188407 112.812C0.188407 112.812 0.188407 112.812 0.188406 112.812C0.188406 112.812 0.188406 112.812 0.188405 112.812C0.188405 112.812 0.188405 112.812 0.188404 112.812C0.188404 112.812 0.188403 112.812 0.188403 112.812C0.188403 112.812 0.188402 112.812 0.188402 112.812C0.188402 112.812 0.188401 112.812 0.188401 112.812C0.188401 112.812 0.1884 112.812 0.1884 112.812C0.1884 112.812 0.188399 112.812 0.188399 112.812C0.188398 112.812 0.188398 112.812 0.188398 112.812C0.188397 112.812 0.188397 112.812 0.188397 112.812C0.188396 112.812 0.188396 112.812 0.188396 112.812C0.188395 112.812 0.188395 112.812 0.188394 112.812C0.188394 112.812 0.188394 112.812 0.188393 112.812C0.188393 112.812 0.188393 112.812 0.188392 112.812C0.188392 112.812 0.188392 112.812 0.188391 112.812C0.188391 112.812 0.188391 112.812 0.18839 112.812C0.18839 112.812 0.188389 112.812 0.188389 112.812C0.188389 112.812 0.188388 112.812 0.188388 112.812C0.188388 112.812 0.188387 112.812 0.188387 112.812C0.188387 112.812 0.188386 112.812 0.188386 112.812C0.188385 112.812 0.188385 112.812 0.188385 112.812C0.188384 112.812 0.188384 112.812 0.188384 112.812C0.188383 112.812 0.188383 112.812 0.188383 112.812C0.188382 112.812 0.188382 112.812 0.188382 112.812C0.188381 112.812 0.188381 112.812 0.18838 112.812C0.18838 112.812 0.18838 112.812 0.188379 112.812C0.188379 112.812 0.188379 112.812 0.188378 112.812C0.188378 112.812 0.188378 112.812 0.188377 112.812C0.188377 112.812 0.188376 112.812 0.188376 112.812C0.188376 112.812 0.188375 112.812 0.188375 112.812C0.188375 112.812 0.188374 112.812 0.188374 112.812C0.188374 112.812 0.188373 112.812 0.188373 112.812C0.188373 112.812 0.188372 112.812 0.188372 112.812C0.188371 112.812 0.188371 112.812 0.188371 112.812C0.18837 112.812 0.18837 112.812 0.18837 112.812C0.188369 112.812 0.188369 112.812 0.188369 112.812C0.188368 112.812 0.188368 112.812 0.188367 112.812C0.188367 112.812 0.188367 112.812 0.188366 112.812C0.188366 112.812 0.188366 112.812 0.188365 112.812C0.188365 112.812 0.188365 112.812 0.188364 112.812C0.188364 112.812 0.188364 112.812 0.188363 112.812C0.188363 112.812 0.188362 112.812 0.188362 112.812C0.188362 112.812 0.188361 112.812 0.188361 112.812C0.188361 112.812 0.18836 112.812 0.18836 112.812C0.18836 112.812 0.188359 112.812 0.188359 112.812C0.188358 112.812 0.188358 112.812 0.188358 112.812C0.188357 112.812 0.188357 112.812 0.188357 112.812C0.188356 112.812 0.188356 112.812 0.188356 112.812C0.188355 112.812 0.188355 112.812 0.188355 112.812C0.188354 112.812 0.188354 112.812 0.188353 112.812C0.188353 112.812 0.188353 112.812 0.188352 112.812C0.188352 112.812 0.188352 112.812 0.188351 112.812C0.188351 112.812 0.188351 112.812 0.18835 112.812C0.18835 112.812 0.188349 112.812 0.188349 112.812C0.188349 112.812 0.188348 112.812 0.188348 112.812C0.188348 112.812 0.188347 112.812 0.188347 112.812C0.188347 112.812 0.188346 112.812 0.188346 112.812C0.188346 112.812 0.188345 112.812 0.188345 112.812C0.188344 112.812 0.188344 112.812 0.188344 112.812C0.188343 112.812 0.188343 112.812 0.188343 112.812C0.188342 112.812 0.188342 112.812 0.188342 112.812C0.188341 112.812 0.188341 112.812 0.18834 112.812C0.18834 112.812 0.18834 112.812 0.188339 112.812C0.188339 112.812 0.188339 112.812 0.188338 112.812C0.188338 112.812 0.188338 112.812 0.188337 112.812C0.188337 112.812 0.188337 112.812 0.188336 112.812C0.188336 112.812 0.188335 112.812 0.188335 112.812C0.188335 112.812 0.188334 112.812 0.188334 112.812C0.188334 112.812 0.188333 112.812 0.188333 112.812C0.188333 112.812 0.188332 112.812 0.188332 112.812C0.188331 112.812 0.188331 112.812 0.188331 112.812C0.18833 112.812 0.18833 112.812 0.18833 112.812C0.188329 112.812 0.188329 112.812 0.188329 112.812C0.188328 112.812 0.188328 112.812 0.188328 112.812C0.188327 112.812 0.188327 112.812 0.188326 112.812C0.188326 112.812 0.188326 112.812 0.188325 112.812C0.188325 112.812 0.188325 112.812 0.188324 112.812C0.188324 112.812 0.188324 112.812 0.188323 112.812C0.188323 112.812 0.188322 112.812 0.188322 112.812C0.188322 112.812 0.188321 112.812 0.188321 112.812C0.188321 112.812 0.18832 112.812 0.18832 112.812C0.18832 112.812 0.188319 112.812 0.188319 112.812C0.188319 112.812 0.188318 112.812 0.188318 112.812C0.188317 112.812 0.188317 112.812 0.188317 112.812C0.188316 112.812 0.188316 112.812 0.188316 112.812C0.188315 112.812 0.188315 112.812 0.188315 112.812C0.188314 112.812 0.188314 112.812 0.188313 112.812C0.188313 112.812 0.188313 112.812 0.188312 112.812C0.188312 112.812 0.188312 112.812 0.188311 112.812C0.188311 112.812 0.188311 112.812 0.18831 112.812C0.18831 112.812 0.18831 112.812 0.188309 112.812C0.188309 112.812 0.188308 112.812 0.188308 112.812C0.188308 112.812 0.188307 112.812 0.188307 112.812C0.188307 112.812 0.188306 112.812 0.188306 112.812C0.188306 112.812 0.188305 112.812 0.188305 112.812C0.188304 112.812 0.188304 112.812 0.188304 112.812C0.188303 112.812 0.188303 112.812 0.188303 112.812C0.188302 112.812 0.188302 112.812 0.188302 112.812C0.188301 112.812 0.188301 112.812 0.1883 112.812C0.1883 112.812 0.1883 112.812 0.188299 112.812C0.188299 112.812 0.188299 112.812 0.188298 112.812C0.188298 112.812 0.188298 112.812 0.188297 112.812C0.188297 112.812 0.188297 112.812 0.188296 112.812C0.188296 112.812 0.188295 112.812 0.188295 112.812C0.188295 112.812 0.188294 112.812 0.188294 112.812C0.188294 112.812 0.188293 112.812 0.188293 112.812C0.188293 112.812 0.188292 112.812 0.188292 112.812C0.188291 112.812 0.188291 112.812 0.188291 112.812C0.18829 112.812 0.18829 112.812 0.18829 112.812C0.188289 112.812 0.188289 112.812 0.188289 112.812C0.188288 112.812 0.188288 112.812 0.188288 112.812C0.188287 112.812 0.188287 112.812 0.188286 112.812C0.188286 112.812 0.188286 112.812 0.188285 112.812C0.188285 112.812 0.188285 112.812 0.188284 112.812C0.188284 112.812 0.188284 112.812 0.188283 112.812C0.188283 112.812 0.188282 112.812 0.188282 112.812C0.188282 112.812 0.188281 112.812 0.188281 112.812C0.188281 112.812 0.18828 112.812 0.18828 112.812C0.18828 112.812 0.188279 112.812 0.188279 112.812C0.188279 112.812 0.188278 112.812 0.188278 112.812C0.188277 112.812 0.188277 112.812 0.188277 112.812C0.188276 112.812 0.188276 112.812 0.188276 112.812C0.188275 112.812 0.188275 112.812 0.188275 112.812C0.188274 112.812 0.188274 112.812 0.188273 112.812C0.188273 112.812 0.188273 112.812 0.188272 112.812C0.188272 112.812 0.188272 112.812 0.188271 112.812C0.188271 112.812 0.188271 112.812 0.18827 112.812C0.18827 112.812 0.18827 112.812 0.188269 112.812C0.188269 112.812 0.188268 112.812 0.188268 112.812C0.188268 112.812 0.188267 112.812 0.188267 112.812C0.188267 112.812 0.188266 112.812 0.188266 112.812C0.188266 112.812 0.188265 112.812 0.188265 112.812C0.188264 112.812 0.188264 112.812 0.188264 112.812C0.188263 112.812 0.188263 112.812 0.188263 112.812C0.188262 112.812 0.188262 112.812 0.188262 112.812C0.188261 112.812 0.188261 112.812 0.188261 112.812C0.18826 112.812 0.18826 112.812 0.188259 112.812C0.188259 112.812 0.188259 112.812 0.188258 112.812C0.188258 112.812 0.188258 112.812 0.188257 112.812C0.188257 112.812 0.188257 112.812 0.188256 112.812C0.188256 112.812 0.188255 112.812 0.188255 112.812C0.188255 112.812 0.188254 112.812 0.188254 112.812C0.188254 112.812 0.188253 112.812 0.188253 112.812C0.188253 112.812 0.188252 112.812 0.188252 112.812C0.188252 112.812 0.188251 112.812 0.188251 112.812C0.18825 112.812 0.18825 112.812 0.18825 112.812C0.188249 112.812 0.188249 112.812 0.188249 112.812C0.188248 112.812 0.188248 112.812 0.188248 112.812C0.188247 112.812 0.188247 112.812 0.188246 112.812C0.188246 112.812 0.188246 112.812 0.188245 112.812C0.188245 112.812 0.188245 112.812 0.188244 112.812C0.188244 112.812 0.188244 112.812 0.188243 112.812C0.188243 112.812 0.188243 112.812 0.188242 112.812C0.188242 112.812 0.188241 112.812 0.188241 112.812C0.188241 112.812 0.18824 112.812 0.18824 112.812C0.18824 112.812 0.188239 112.812 0.188239 112.812C0.188239 112.812 0.188238 112.812 0.188238 112.812C0.188237 112.812 0.188237 112.812 0.188237 112.812C0.188236 112.812 0.188236 112.812 0.188236 112.812C0.188235 112.812 0.188235 112.812 0.188235 112.812C0.188234 112.812 0.188234 112.812 0.188234 112.812C0.188233 112.812 0.188233 112.812 0.188232 112.812C0.188232 112.812 0.188232 112.812 0.188231 112.812C0.188231 112.812 0.188231 112.812 0.18823 112.812C0.18823 112.812 0.18823 112.812 0.188229 112.812C0.188229 112.812 0.188228 112.812 0.188228 112.812C0.188228 112.812 0.188227 112.812 0.188227 112.812C0.188227 112.812 0.188226 112.812 0.188226 112.812C0.188226 112.812 0.188225 112.812 0.188225 112.812C0.188225 112.812 0.188224 112.812 0.188224 112.812C0.188223 112.812 0.188223 112.812 0.188223 112.812C0.188222 112.812 0.188222 112.812 0.188222 112.812C0.188221 112.812 0.188221 112.812 0.188221 112.812C0.18822 112.812 0.18822 112.812 0.188219 112.812C0.188219 112.812 0.188219 112.812 0.188218 112.812C0.188218 112.812 0.188218 112.812 0.188217 112.812C0.188217 112.812 0.188217 112.812 0.188216 112.812C0.188216 112.812 0.188216 112.812 0.188215 112.812C0.188215 112.812 0.188214 112.812 0.188214 112.812C0.188214 112.812 0.188213 112.812 0.188213 112.812C0.188213 112.812 0.188212 112.812 0.188212 112.812C0.188212 112.812 0.188211 112.812 0.188211 112.812C0.18821 112.812 0.18821 112.812 0.18821 112.812C0.188209 112.812 0.188209 112.812 0.188209 112.812C0.188208 112.812 0.188208 112.812 0.188208 112.812C0.188207 112.812 0.188207 112.812 0.188207 112.812C0.188206 112.812 0.188206 112.812 0.188205 112.812C0.188205 112.812 0.188205 112.812 0.188204 112.812C0.188204 112.812 0.188204 112.812 0.188203 112.812C0.188203 112.812 0.188203 112.812 0.188202 112.812C0.188202 112.812 0.188201 112.812 0.188201 112.812C0.188201 112.812 0.1882 112.812 0.1882 112.812C0.1882 112.812 0.188199 112.812 0.188199 112.812C0.188199 112.812 0.188198 112.812 0.188198 112.812C0.188198 112.812 0.188197 112.812 0.188197 112.812C0.188196 112.812 0.188196 112.812 0.188196 112.812C0.188195 112.812 0.188195 112.812 0.188195 112.812C0.188194 112.812 0.188194 112.812 0.188194 112.812C0.188193 112.812 0.188193 112.812 0.188192 112.812C0.188192 112.812 0.188192 112.812 0.188191 112.812C0.188191 112.812 0.188191 112.812 0.18819 112.812C0.18819 112.812 0.18819 112.812 0.188189 112.812C0.188189 112.812 0.188189 112.812 0.188188 112.812C0.188188 112.812 0.188187 112.812 0.188187 112.812C0.188187 112.812 0.188186 112.812 0.188186 112.812C0.188186 112.812 0.188185 112.812 0.188185 112.812C0.188185 112.812 0.188184 112.812 0.188184 112.812C0.188183 112.812 0.188183 112.812 0.188183 112.812C0.188182 112.812 0.188182 112.812 0.188182 112.812C0.188181 112.812 0.188181 112.812 0.188181 112.812C0.18818 112.812 0.18818 112.812 0.18818 112.812C0.188179 112.812 0.188179 112.812 0.188178 112.812C0.188178 112.812 0.188178 112.812 0.188177 112.812C0.188177 112.812 0.188177 112.812 0.188176 112.812C0.188176 112.812 0.188176 112.812 0.188175 112.812C0.188175 112.812 0.188174 112.812 0.188174 112.812C0.188174 112.812 0.188173 112.812 0.188173 112.812C0.188173 112.812 0.188172 112.812 0.188172 112.812C0.188172 112.812 0.188171 112.812 0.188171 112.812C0.18817 112.812 0.18817 112.812 0.18817 112.812C0.188169 112.812 0.188169 112.812 0.188169 112.812C0.188168 112.812 0.188168 112.812 0.188168 112.812C0.188167 112.812 0.188167 112.812 0.188167 112.812C0.188166 112.812 0.188166 112.812 0.188165 112.812C0.188165 112.812 0.188165 112.812 0.188164 112.812C0.188164 112.812 0.188164 112.812 0.188163 112.812C0.188163 112.812 0.188163 112.812 0.188162 112.812C0.188162 112.812 0.188161 112.812 0.188161 112.812C0.188161 112.812 0.18816 112.812 0.18816 112.812C0.18816 112.812 0.188159 112.812 0.188159 112.812C0.188159 112.812 0.188158 112.812 0.188158 112.812C0.188158 112.812 0.188157 112.812 0.188157 112.812C0.188156 112.812 0.188156 112.812 0.188156 112.812C0.188155 112.812 0.188155 112.812 0.188155 112.812C0.188154 112.812 0.188154 112.812 0.188154 112.812C0.188153 112.812 0.188153 112.812 0.188152 112.812C0.188152 112.812 0.188152 112.812 0.188151 112.812C0.188151 112.812 0.188151 112.812 0.18815 112.812C0.18815 112.812 0.18815 112.812 0.188149 112.812C0.188149 112.812 0.188149 112.812 0.188148 112.812C0.188148 112.812 0.188147 112.812 0.188147 112.812C0.188147 112.812 0.188146 112.812 0.188146 112.812C0.188146 112.812 0.188145 112.812 0.188145 112.812C0.188145 112.812 0.188144 112.812 0.188144 112.812C0.188143 112.812 0.188143 112.812 0.188143 112.812C0.188142 112.812 0.188142 112.812 0.188142 112.812C0.188141 112.812 0.188141 112.812 0.188141 112.812C0.18814 112.812 0.18814 112.812 0.18814 112.812C0.188139 112.812 0.188139 112.812 0.188138 112.812C0.188138 112.812 0.188138 112.812 0.188137 112.812C0.188137 112.812 0.188137 112.812 0.188136 112.812C0.188136 112.812 0.188136 112.812 0.188135 112.812C0.188135 112.812 0.188134 112.812 0.188134 112.812C0.188134 112.812 0.188133 112.812 0.188133 112.812C0.188133 112.812 0.188132 112.812 0.188132 112.812C0.188132 112.812 0.188131 112.812 0.188131 112.812C0.188131 112.812 0.18813 112.812 0.18813 112.812C0.188129 112.812 0.188129 112.812 0.188129 112.812C0.188128 112.812 0.188128 112.812 0.188128 112.812C0.188127 112.812 0.188127 112.812 0.188127 112.812C0.188126 112.812 0.188126 112.812 0.188125 112.812C0.188125 112.812 0.188125 112.812 0.188124 112.812C0.188124 112.812 0.188124 112.812 0.188123 112.812C0.188123 112.812 0.188123 112.812 0.188122 112.812C0.188122 112.812 0.188122 112.812 0.188121 112.812C0.188121 112.812 0.18812 112.812 0.18812 112.812C0.18812 112.812 0.188119 112.812 0.188119 112.812C0.188119 112.812 0.188118 112.812 0.188118 112.812C0.188118 112.812 0.188117 112.812 0.188117 112.812C0.188116 112.812 0.188116 112.812 0.188116 112.812C0.188115 112.812 0.188115 112.812 0.188115 112.812C0.188114 112.812 0.188114 112.812 0.188114 112.812C0.188113 112.812 0.188113 112.812 0.188113 112.812C0.188112 112.812 0.188112 112.812 0.188111 112.812C0.188111 112.812 0.188111 112.812 0.18811 112.812C0.18811 112.812 0.18811 112.812 0.188109 112.812C0.188109 112.812 0.188109 112.812 0.188108 112.812C0.188108 112.812 0.188107 112.812 0.188107 112.812C0.188107 112.812 0.188106 112.812 0.188106 112.812C0.188106 112.812 0.188105 112.812 0.188105 112.812C0.188105 112.812 0.188104 112.812 0.188104 112.812C0.188104 112.812 0.188103 112.812 0.188103 112.812C0.188102 112.812 0.188102 112.812 0.188102 112.812C0.188101 112.812 0.188101 112.812 0.188101 112.812C0.1881 112.812 0.1881 112.812 0.1881 112.812C0.188099 112.812 0.188099 112.812 0.188098 112.812C0.188098 112.812 0.188098 112.812 0.188097 112.812C0.188097 112.812 0.188097 112.812 0.188096 112.812C0.188096 112.812 0.188096 112.812 0.188095 112.812C0.188095 112.812 0.188095 112.812 0.188094 112.812C0.188094 112.812 0.188093 112.812 0.188093 112.812C0.188093 112.812 0.188092 112.812 0.188092 112.812C0.188092 112.812 0.188091 112.812 0.188091 112.812C0.188091 112.812 0.18809 112.812 0.18809 112.812C0.188089 112.812 0.188089 112.812 0.188089 112.812C0.188088 112.812 0.188088 112.812 0.188088 112.812C0.188087 112.812 0.188087 112.812 0.188087 112.812C0.188086 112.812 0.188086 112.812 0.188086 112.812C0.188085 112.812 0.188085 112.812 0.188084 112.812C0.188084 112.812 0.188084 112.812 0.188083 112.812C0.188083 112.812 0.188083 112.812 0.188082 112.812C0.188082 112.812 0.188082 112.812 0.188081 112.812C0.188081 112.812 0.18808 112.812 0.18808 112.812C0.18808 112.812 0.188079 112.812 0.188079 112.812C0.188079 112.812 0.188078 112.812 0.188078 112.812C0.188078 112.812 0.188077 112.812 0.188077 112.812C0.188077 112.812 0.188076 112.812 0.188076 112.812C0.188075 112.812 0.188075 112.812 0.188075 112.812C0.188074 112.812 0.188074 112.812 0.188074 112.812C0.188073 112.812 0.188073 112.812 0.188073 112.812C0.188072 112.812 0.188072 112.812 0.188071 112.812C0.188071 112.812 0.188071 112.812 0.18807 112.812C0.18807 112.812 0.18807 112.812 0.188069 112.812C0.188069 112.812 0.188069 112.812 0.188068 112.812C0.188068 112.812 0.188068 112.812 0.188067 112.812C0.188067 112.812 0.188066 112.812 0.188066 112.812C0.188066 112.812 0.188065 112.812 0.188065 112.812C0.188065 112.812 0.188064 112.812 0.188064 112.812C0.188064 112.812 0.188063 112.812 0.188063 112.812C0.188062 112.812 0.188062 112.812 0.188062 112.812C0.188061 112.812 0.188061 112.812 0.188061 112.812C0.18806 112.812 0.18806 112.812 0.18806 112.812C0.188059 112.812 0.188059 112.812 0.188059 112.812C0.188058 112.812 0.188058 112.812 0.188057 112.812C0.188057 112.812 0.188057 112.812 0.188056 112.812C0.188056 112.812 0.188056 112.812 0.188055 112.812C0.188055 112.812 0.188055 112.812 0.188054 112.812C0.188054 112.812 0.188053 112.812 0.188053 112.812C0.188053 112.812 0.188052 112.812 0.188052 112.812C0.188052 112.812 0.188051 112.812 0.188051 112.812C0.188051 112.812 0.18805 112.812 0.18805 112.812C0.18805 112.812 0.188049 112.812 0.188049 112.812C0.188048 112.812 0.188048 112.812 0.188048 112.812C0.188047 112.812 0.188047 112.812 0.188047 112.812C0.188046 112.812 0.188046 112.812 0.188046 112.812C0.188045 112.812 0.188045 112.812 0.188044 112.812C0.188044 112.812 0.188044 112.812 0.188043 112.812C0.188043 112.812 0.188043 112.812 0.188042 112.812C0.188042 112.812 0.188042 112.812 0.188041 112.812C0.188041 112.812 0.18804 112.812 0.18804 112.812C0.18804 112.812 0.188039 112.812 0.188039 112.812C0.188039 112.812 0.188038 112.812 0.188038 112.812C0.188038 112.812 0.188037 112.812 0.188037 112.812C0.188037 112.812 0.188036 112.812 0.188036 112.812C0.188035 112.812 0.188035 112.812 0.188035 112.812C0.188034 112.812 0.188034 112.812 0.188034 112.812C0.188033 112.812 0.188033 112.812 0.188033 112.812C0.188032 112.812 0.188032 112.812 0.188031 112.812C0.188031 112.812 0.188031 112.812 0.18803 112.812C0.18803 112.812 0.18803 112.812 0.188029 112.812C0.188029 112.812 0.188029 112.812 0.188028 112.812C0.188028 112.812 0.188028 112.812 0.188027 112.812C0.188027 112.812 0.188026 112.812 0.188026 112.812C0.188026 112.812 0.188025 112.812 0.188025 112.812C0.188025 112.812 0.188024 112.812 0.188024 112.812C0.188024 112.812 0.188023 112.812 0.188023 112.812C0.188022 112.812 0.188022 112.812 0.188022 112.812C0.188021 112.812 0.188021 112.812 0.188021 112.812C0.18802 112.812 0.18802 112.812 0.18802 112.812C0.188019 112.812 0.188019 112.812 0.188019 112.812C0.188018 112.812 0.188018 112.812 0.188017 112.812C0.188017 112.812 0.188017 112.812 0.188016 112.812C0.188016 112.812 0.188016 112.812 0.188015 112.812C0.188015 112.812 0.188015 112.812 0.188014 112.812C0.188014 112.812 0.188013 112.812 0.188013 112.812C0.188013 112.812 0.188012 112.812 0.188012 112.812C0.188012 112.812 0.188011 112.812 0.188011 112.812C0.188011 112.812 0.18801 112.812 0.18801 112.812C0.18801 112.812 0.188009 112.812 0.188009 112.812C0.188008 112.812 0.188008 112.812 0.188008 112.812C0.188007 112.812 0.188007 112.812 0.188007 112.812C0.188006 112.812 0.188006 112.812 0.188006 112.812C0.188005 112.812 0.188005 112.812 0.188004 112.812C0.188004 112.812 0.188004 112.812 0.188003 112.812C0.188003 112.812 0.188003 112.812 0.188002 112.812C0.188002 112.812 0.188002 112.812 0.188001 112.812C0.188001 112.812 0.188001 112.812 0.188 112.812C0.188 112.812 0.187999 112.812 0.187999 112.812C0.187999 112.812 0.187998 112.812 0.187998 112.812C0.187998 112.812 0.187997 112.812 0.187997 112.812C0.187997 112.812 0.187996 112.812 0.187996 112.812C0.187995 112.812 0.187995 112.812 0.187995 112.812C0.187994 112.812 0.187994 112.812 0.187994 112.812C0.187993 112.812 0.187993 112.812 0.187993 112.812C0.187992 112.812 0.187992 112.812 0.187992 112.812C0.187991 112.812 0.187991 112.812 0.18799 112.812C0.18799 112.812 0.18799 112.812 0.187989 112.812C0.187989 112.812 0.187989 112.812 0.187988 112.812V114.812C0.187989 114.812 0.187989 114.812 0.187989 114.812C0.18799 114.812 0.18799 114.812 0.18799 114.812C0.187991 114.812 0.187991 114.812 0.187992 114.812C0.187992 114.812 0.187992 114.812 0.187993 114.812C0.187993 114.812 0.187993 114.812 0.187994 114.812C0.187994 114.812 0.187994 114.812 0.187995 114.812C0.187995 114.812 0.187995 114.812 0.187996 114.812C0.187996 114.812 0.187997 114.812 0.187997 114.812C0.187997 114.812 0.187998 114.812 0.187998 114.812C0.187998 114.812 0.187999 114.812 0.187999 114.812C0.187999 114.812 0.188 114.812 0.188 114.812C0.188001 114.812 0.188001 114.812 0.188001 114.812C0.188002 114.812 0.188002 114.812 0.188002 114.812C0.188003 114.812 0.188003 114.812 0.188003 114.812C0.188004 114.812 0.188004 114.812 0.188004 114.812C0.188005 114.812 0.188005 114.812 0.188006 114.812C0.188006 114.812 0.188006 114.812 0.188007 114.812C0.188007 114.812 0.188007 114.812 0.188008 114.812C0.188008 114.812 0.188008 114.812 0.188009 114.812C0.188009 114.812 0.18801 114.812 0.18801 114.812C0.18801 114.812 0.188011 114.812 0.188011 114.812C0.188011 114.812 0.188012 114.812 0.188012 114.812C0.188012 114.812 0.188013 114.812 0.188013 114.812C0.188013 114.812 0.188014 114.812 0.188014 114.812C0.188015 114.812 0.188015 114.812 0.188015 114.812C0.188016 114.812 0.188016 114.812 0.188016 114.812C0.188017 114.812 0.188017 114.812 0.188017 114.812C0.188018 114.812 0.188018 114.812 0.188019 114.812C0.188019 114.812 0.188019 114.812 0.18802 114.812C0.18802 114.812 0.18802 114.812 0.188021 114.812C0.188021 114.812 0.188021 114.812 0.188022 114.812C0.188022 114.812 0.188022 114.812 0.188023 114.812C0.188023 114.812 0.188024 114.812 0.188024 114.812C0.188024 114.812 0.188025 114.812 0.188025 114.812C0.188025 114.812 0.188026 114.812 0.188026 114.812C0.188026 114.812 0.188027 114.812 0.188027 114.812C0.188028 114.812 0.188028 114.812 0.188028 114.812C0.188029 114.812 0.188029 114.812 0.188029 114.812C0.18803 114.812 0.18803 114.812 0.18803 114.812C0.188031 114.812 0.188031 114.812 0.188031 114.812C0.188032 114.812 0.188032 114.812 0.188033 114.812C0.188033 114.812 0.188033 114.812 0.188034 114.812C0.188034 114.812 0.188034 114.812 0.188035 114.812C0.188035 114.812 0.188035 114.812 0.188036 114.812C0.188036 114.812 0.188037 114.812 0.188037 114.812C0.188037 114.812 0.188038 114.812 0.188038 114.812C0.188038 114.812 0.188039 114.812 0.188039 114.812C0.188039 114.812 0.18804 114.812 0.18804 114.812C0.18804 114.812 0.188041 114.812 0.188041 114.812C0.188042 114.812 0.188042 114.812 0.188042 114.812C0.188043 114.812 0.188043 114.812 0.188043 114.812C0.188044 114.812 0.188044 114.812 0.188044 114.812C0.188045 114.812 0.188045 114.812 0.188046 114.812C0.188046 114.812 0.188046 114.812 0.188047 114.812C0.188047 114.812 0.188047 114.812 0.188048 114.812C0.188048 114.812 0.188048 114.812 0.188049 114.812C0.188049 114.812 0.18805 114.812 0.18805 114.812C0.18805 114.812 0.188051 114.812 0.188051 114.812C0.188051 114.812 0.188052 114.812 0.188052 114.812C0.188052 114.812 0.188053 114.812 0.188053 114.812C0.188053 114.812 0.188054 114.812 0.188054 114.812C0.188055 114.812 0.188055 114.812 0.188055 114.812C0.188056 114.812 0.188056 114.812 0.188056 114.812C0.188057 114.812 0.188057 114.812 0.188057 114.812C0.188058 114.812 0.188058 114.812 0.188059 114.812C0.188059 114.812 0.188059 114.812 0.18806 114.812C0.18806 114.812 0.18806 114.812 0.188061 114.812C0.188061 114.812 0.188061 114.812 0.188062 114.812C0.188062 114.812 0.188062 114.812 0.188063 114.812C0.188063 114.812 0.188064 114.812 0.188064 114.812C0.188064 114.812 0.188065 114.812 0.188065 114.812C0.188065 114.812 0.188066 114.812 0.188066 114.812C0.188066 114.812 0.188067 114.812 0.188067 114.812C0.188068 114.812 0.188068 114.812 0.188068 114.812C0.188069 114.812 0.188069 114.812 0.188069 114.812C0.18807 114.812 0.18807 114.812 0.18807 114.812C0.188071 114.812 0.188071 114.812 0.188071 114.812C0.188072 114.812 0.188072 114.812 0.188073 114.812C0.188073 114.812 0.188073 114.812 0.188074 114.812C0.188074 114.812 0.188074 114.812 0.188075 114.812C0.188075 114.812 0.188075 114.812 0.188076 114.812C0.188076 114.812 0.188077 114.812 0.188077 114.812C0.188077 114.812 0.188078 114.812 0.188078 114.812C0.188078 114.812 0.188079 114.812 0.188079 114.812C0.188079 114.812 0.18808 114.812 0.18808 114.812C0.18808 114.812 0.188081 114.812 0.188081 114.812C0.188082 114.812 0.188082 114.812 0.188082 114.812C0.188083 114.812 0.188083 114.812 0.188083 114.812C0.188084 114.812 0.188084 114.812 0.188084 114.812C0.188085 114.812 0.188085 114.812 0.188086 114.812C0.188086 114.812 0.188086 114.812 0.188087 114.812C0.188087 114.812 0.188087 114.812 0.188088 114.812C0.188088 114.812 0.188088 114.812 0.188089 114.812C0.188089 114.812 0.188089 114.812 0.18809 114.812C0.18809 114.812 0.188091 114.812 0.188091 114.812C0.188091 114.812 0.188092 114.812 0.188092 114.812C0.188092 114.812 0.188093 114.812 0.188093 114.812C0.188093 114.812 0.188094 114.812 0.188094 114.812C0.188095 114.812 0.188095 114.812 0.188095 114.812C0.188096 114.812 0.188096 114.812 0.188096 114.812C0.188097 114.812 0.188097 114.812 0.188097 114.812C0.188098 114.812 0.188098 114.812 0.188098 114.812C0.188099 114.812 0.188099 114.812 0.1881 114.812C0.1881 114.812 0.1881 114.812 0.188101 114.812C0.188101 114.812 0.188101 114.812 0.188102 114.812C0.188102 114.812 0.188102 114.812 0.188103 114.812C0.188103 114.812 0.188104 114.812 0.188104 114.812C0.188104 114.812 0.188105 114.812 0.188105 114.812C0.188105 114.812 0.188106 114.812 0.188106 114.812C0.188106 114.812 0.188107 114.812 0.188107 114.812C0.188107 114.812 0.188108 114.812 0.188108 114.812C0.188109 114.812 0.188109 114.812 0.188109 114.812C0.18811 114.812 0.18811 114.812 0.18811 114.812C0.188111 114.812 0.188111 114.812 0.188111 114.812C0.188112 114.812 0.188112 114.812 0.188113 114.812C0.188113 114.812 0.188113 114.812 0.188114 114.812C0.188114 114.812 0.188114 114.812 0.188115 114.812C0.188115 114.812 0.188115 114.812 0.188116 114.812C0.188116 114.812 0.188116 114.812 0.188117 114.812C0.188117 114.812 0.188118 114.812 0.188118 114.812C0.188118 114.812 0.188119 114.812 0.188119 114.812C0.188119 114.812 0.18812 114.812 0.18812 114.812C0.18812 114.812 0.188121 114.812 0.188121 114.812C0.188122 114.812 0.188122 114.812 0.188122 114.812C0.188123 114.812 0.188123 114.812 0.188123 114.812C0.188124 114.812 0.188124 114.812 0.188124 114.812C0.188125 114.812 0.188125 114.812 0.188125 114.812C0.188126 114.812 0.188126 114.812 0.188127 114.812C0.188127 114.812 0.188127 114.812 0.188128 114.812C0.188128 114.812 0.188128 114.812 0.188129 114.812C0.188129 114.812 0.188129 114.812 0.18813 114.812C0.18813 114.812 0.188131 114.812 0.188131 114.812C0.188131 114.812 0.188132 114.812 0.188132 114.812C0.188132 114.812 0.188133 114.812 0.188133 114.812C0.188133 114.812 0.188134 114.812 0.188134 114.812C0.188134 114.812 0.188135 114.812 0.188135 114.812C0.188136 114.812 0.188136 114.812 0.188136 114.812C0.188137 114.812 0.188137 114.812 0.188137 114.812C0.188138 114.812 0.188138 114.812 0.188138 114.812C0.188139 114.812 0.188139 114.812 0.18814 114.812C0.18814 114.812 0.18814 114.812 0.188141 114.812C0.188141 114.812 0.188141 114.812 0.188142 114.812C0.188142 114.812 0.188142 114.812 0.188143 114.812C0.188143 114.812 0.188143 114.812 0.188144 114.812C0.188144 114.812 0.188145 114.812 0.188145 114.812C0.188145 114.812 0.188146 114.812 0.188146 114.812C0.188146 114.812 0.188147 114.812 0.188147 114.812C0.188147 114.812 0.188148 114.812 0.188148 114.812C0.188149 114.812 0.188149 114.812 0.188149 114.812C0.18815 114.812 0.18815 114.812 0.18815 114.812C0.188151 114.812 0.188151 114.812 0.188151 114.812C0.188152 114.812 0.188152 114.812 0.188152 114.812C0.188153 114.812 0.188153 114.812 0.188154 114.812C0.188154 114.812 0.188154 114.812 0.188155 114.812C0.188155 114.812 0.188155 114.812 0.188156 114.812C0.188156 114.812 0.188156 114.812 0.188157 114.812C0.188157 114.812 0.188158 114.812 0.188158 114.812C0.188158 114.812 0.188159 114.812 0.188159 114.812C0.188159 114.812 0.18816 114.812 0.18816 114.812C0.18816 114.812 0.188161 114.812 0.188161 114.812C0.188161 114.812 0.188162 114.812 0.188162 114.812C0.188163 114.812 0.188163 114.812 0.188163 114.812C0.188164 114.812 0.188164 114.812 0.188164 114.812C0.188165 114.812 0.188165 114.812 0.188165 114.812C0.188166 114.812 0.188166 114.812 0.188167 114.812C0.188167 114.812 0.188167 114.812 0.188168 114.812C0.188168 114.812 0.188168 114.812 0.188169 114.812C0.188169 114.812 0.188169 114.812 0.18817 114.812C0.18817 114.812 0.18817 114.812 0.188171 114.812C0.188171 114.812 0.188172 114.812 0.188172 114.812C0.188172 114.812 0.188173 114.812 0.188173 114.812C0.188173 114.812 0.188174 114.812 0.188174 114.812C0.188174 114.812 0.188175 114.812 0.188175 114.812C0.188176 114.812 0.188176 114.812 0.188176 114.812C0.188177 114.812 0.188177 114.812 0.188177 114.812C0.188178 114.812 0.188178 114.812 0.188178 114.812C0.188179 114.812 0.188179 114.812 0.18818 114.812C0.18818 114.812 0.18818 114.812 0.188181 114.812C0.188181 114.812 0.188181 114.812 0.188182 114.812C0.188182 114.812 0.188182 114.812 0.188183 114.812C0.188183 114.812 0.188183 114.812 0.188184 114.812C0.188184 114.812 0.188185 114.812 0.188185 114.812C0.188185 114.812 0.188186 114.812 0.188186 114.812C0.188186 114.812 0.188187 114.812 0.188187 114.812C0.188187 114.812 0.188188 114.812 0.188188 114.812C0.188189 114.812 0.188189 114.812 0.188189 114.812C0.18819 114.812 0.18819 114.812 0.18819 114.812C0.188191 114.812 0.188191 114.812 0.188191 114.812C0.188192 114.812 0.188192 114.812 0.188192 114.812C0.188193 114.812 0.188193 114.812 0.188194 114.812C0.188194 114.812 0.188194 114.812 0.188195 114.812C0.188195 114.812 0.188195 114.812 0.188196 114.812C0.188196 114.812 0.188196 114.812 0.188197 114.812C0.188197 114.812 0.188198 114.812 0.188198 114.812C0.188198 114.812 0.188199 114.812 0.188199 114.812C0.188199 114.812 0.1882 114.812 0.1882 114.812C0.1882 114.812 0.188201 114.812 0.188201 114.812C0.188201 114.812 0.188202 114.812 0.188202 114.812C0.188203 114.812 0.188203 114.812 0.188203 114.812C0.188204 114.812 0.188204 114.812 0.188204 114.812C0.188205 114.812 0.188205 114.812 0.188205 114.812C0.188206 114.812 0.188206 114.812 0.188207 114.812C0.188207 114.812 0.188207 114.812 0.188208 114.812C0.188208 114.812 0.188208 114.812 0.188209 114.812C0.188209 114.812 0.188209 114.812 0.18821 114.812C0.18821 114.812 0.18821 114.812 0.188211 114.812C0.188211 114.812 0.188212 114.812 0.188212 114.812C0.188212 114.812 0.188213 114.812 0.188213 114.812C0.188213 114.812 0.188214 114.812 0.188214 114.812C0.188214 114.812 0.188215 114.812 0.188215 114.812C0.188216 114.812 0.188216 114.812 0.188216 114.812C0.188217 114.812 0.188217 114.812 0.188217 114.812C0.188218 114.812 0.188218 114.812 0.188218 114.812C0.188219 114.812 0.188219 114.812 0.188219 114.812C0.18822 114.812 0.18822 114.812 0.188221 114.812C0.188221 114.812 0.188221 114.812 0.188222 114.812C0.188222 114.812 0.188222 114.812 0.188223 114.812C0.188223 114.812 0.188223 114.812 0.188224 114.812C0.188224 114.812 0.188225 114.812 0.188225 114.812C0.188225 114.812 0.188226 114.812 0.188226 114.812C0.188226 114.812 0.188227 114.812 0.188227 114.812C0.188227 114.812 0.188228 114.812 0.188228 114.812C0.188228 114.812 0.188229 114.812 0.188229 114.812C0.18823 114.812 0.18823 114.812 0.18823 114.812C0.188231 114.812 0.188231 114.812 0.188231 114.812C0.188232 114.812 0.188232 114.812 0.188232 114.812C0.188233 114.812 0.188233 114.812 0.188234 114.812C0.188234 114.812 0.188234 114.812 0.188235 114.812C0.188235 114.812 0.188235 114.812 0.188236 114.812C0.188236 114.812 0.188236 114.812 0.188237 114.812C0.188237 114.812 0.188237 114.812 0.188238 114.812C0.188238 114.812 0.188239 114.812 0.188239 114.812C0.188239 114.812 0.18824 114.812 0.18824 114.812C0.18824 114.812 0.188241 114.812 0.188241 114.812C0.188241 114.812 0.188242 114.812 0.188242 114.812C0.188243 114.812 0.188243 114.812 0.188243 114.812C0.188244 114.812 0.188244 114.812 0.188244 114.812C0.188245 114.812 0.188245 114.812 0.188245 114.812C0.188246 114.812 0.188246 114.812 0.188246 114.812C0.188247 114.812 0.188247 114.812 0.188248 114.812C0.188248 114.812 0.188248 114.812 0.188249 114.812C0.188249 114.812 0.188249 114.812 0.18825 114.812C0.18825 114.812 0.18825 114.812 0.188251 114.812C0.188251 114.812 0.188252 114.812 0.188252 114.812C0.188252 114.812 0.188253 114.812 0.188253 114.812C0.188253 114.812 0.188254 114.812 0.188254 114.812C0.188254 114.812 0.188255 114.812 0.188255 114.812C0.188255 114.812 0.188256 114.812 0.188256 114.812C0.188257 114.812 0.188257 114.812 0.188257 114.812C0.188258 114.812 0.188258 114.812 0.188258 114.812C0.188259 114.812 0.188259 114.812 0.188259 114.812C0.18826 114.812 0.18826 114.812 0.188261 114.812C0.188261 114.812 0.188261 114.812 0.188262 114.812C0.188262 114.812 0.188262 114.812 0.188263 114.812C0.188263 114.812 0.188263 114.812 0.188264 114.812C0.188264 114.812 0.188264 114.812 0.188265 114.812C0.188265 114.812 0.188266 114.812 0.188266 114.812C0.188266 114.812 0.188267 114.812 0.188267 114.812C0.188267 114.812 0.188268 114.812 0.188268 114.812C0.188268 114.812 0.188269 114.812 0.188269 114.812C0.18827 114.812 0.18827 114.812 0.18827 114.812C0.188271 114.812 0.188271 114.812 0.188271 114.812C0.188272 114.812 0.188272 114.812 0.188272 114.812C0.188273 114.812 0.188273 114.812 0.188273 114.812C0.188274 114.812 0.188274 114.812 0.188275 114.812C0.188275 114.812 0.188275 114.812 0.188276 114.812C0.188276 114.812 0.188276 114.812 0.188277 114.812C0.188277 114.812 0.188277 114.812 0.188278 114.812C0.188278 114.812 0.188279 114.812 0.188279 114.812C0.188279 114.812 0.18828 114.812 0.18828 114.812C0.18828 114.812 0.188281 114.812 0.188281 114.812C0.188281 114.812 0.188282 114.812 0.188282 114.812C0.188282 114.812 0.188283 114.812 0.188283 114.812C0.188284 114.812 0.188284 114.812 0.188284 114.812C0.188285 114.812 0.188285 114.812 0.188285 114.812C0.188286 114.812 0.188286 114.812 0.188286 114.812C0.188287 114.812 0.188287 114.812 0.188288 114.812C0.188288 114.812 0.188288 114.812 0.188289 114.812C0.188289 114.812 0.188289 114.812 0.18829 114.812C0.18829 114.812 0.18829 114.812 0.188291 114.812C0.188291 114.812 0.188291 114.812 0.188292 114.812C0.188292 114.812 0.188293 114.812 0.188293 114.812C0.188293 114.812 0.188294 114.812 0.188294 114.812C0.188294 114.812 0.188295 114.812 0.188295 114.812C0.188295 114.812 0.188296 114.812 0.188296 114.812C0.188297 114.812 0.188297 114.812 0.188297 114.812C0.188298 114.812 0.188298 114.812 0.188298 114.812C0.188299 114.812 0.188299 114.812 0.188299 114.812C0.1883 114.812 0.1883 114.812 0.1883 114.812C0.188301 114.812 0.188301 114.812 0.188302 114.812C0.188302 114.812 0.188302 114.812 0.188303 114.812C0.188303 114.812 0.188303 114.812 0.188304 114.812C0.188304 114.812 0.188304 114.812 0.188305 114.812C0.188305 114.812 0.188306 114.812 0.188306 114.812C0.188306 114.812 0.188307 114.812 0.188307 114.812C0.188307 114.812 0.188308 114.812 0.188308 114.812C0.188308 114.812 0.188309 114.812 0.188309 114.812C0.18831 114.812 0.18831 114.812 0.18831 114.812C0.188311 114.812 0.188311 114.812 0.188311 114.812C0.188312 114.812 0.188312 114.812 0.188312 114.812C0.188313 114.812 0.188313 114.812 0.188313 114.812C0.188314 114.812 0.188314 114.812 0.188315 114.812C0.188315 114.812 0.188315 114.812 0.188316 114.812C0.188316 114.812 0.188316 114.812 0.188317 114.812C0.188317 114.812 0.188317 114.812 0.188318 114.812C0.188318 114.812 0.188319 114.812 0.188319 114.812C0.188319 114.812 0.18832 114.812 0.18832 114.812C0.18832 114.812 0.188321 114.812 0.188321 114.812C0.188321 114.812 0.188322 114.812 0.188322 114.812C0.188322 114.812 0.188323 114.812 0.188323 114.812C0.188324 114.812 0.188324 114.812 0.188324 114.812C0.188325 114.812 0.188325 114.812 0.188325 114.812C0.188326 114.812 0.188326 114.812 0.188326 114.812C0.188327 114.812 0.188327 114.812 0.188328 114.812C0.188328 114.812 0.188328 114.812 0.188329 114.812C0.188329 114.812 0.188329 114.812 0.18833 114.812C0.18833 114.812 0.18833 114.812 0.188331 114.812C0.188331 114.812 0.188331 114.812 0.188332 114.812C0.188332 114.812 0.188333 114.812 0.188333 114.812C0.188333 114.812 0.188334 114.812 0.188334 114.812C0.188334 114.812 0.188335 114.812 0.188335 114.812C0.188335 114.812 0.188336 114.812 0.188336 114.812C0.188337 114.812 0.188337 114.812 0.188337 114.812C0.188338 114.812 0.188338 114.812 0.188338 114.812C0.188339 114.812 0.188339 114.812 0.188339 114.812C0.18834 114.812 0.18834 114.812 0.18834 114.812C0.188341 114.812 0.188341 114.812 0.188342 114.812C0.188342 114.812 0.188342 114.812 0.188343 114.812C0.188343 114.812 0.188343 114.812 0.188344 114.812C0.188344 114.812 0.188344 114.812 0.188345 114.812C0.188345 114.812 0.188346 114.812 0.188346 114.812C0.188346 114.812 0.188347 114.812 0.188347 114.812C0.188347 114.812 0.188348 114.812 0.188348 114.812C0.188348 114.812 0.188349 114.812 0.188349 114.812C0.188349 114.812 0.18835 114.812 0.18835 114.812C0.188351 114.812 0.188351 114.812 0.188351 114.812C0.188352 114.812 0.188352 114.812 0.188352 114.812C0.188353 114.812 0.188353 114.812 0.188353 114.812C0.188354 114.812 0.188354 114.812 0.188355 114.812C0.188355 114.812 0.188355 114.812 0.188356 114.812C0.188356 114.812 0.188356 114.812 0.188357 114.812C0.188357 114.812 0.188357 114.812 0.188358 114.812C0.188358 114.812 0.188358 114.812 0.188359 114.812C0.188359 114.812 0.18836 114.812 0.18836 114.812C0.18836 114.812 0.188361 114.812 0.188361 114.812C0.188361 114.812 0.188362 114.812 0.188362 114.812C0.188362 114.812 0.188363 114.812 0.188363 114.812C0.188364 114.812 0.188364 114.812 0.188364 114.812C0.188365 114.812 0.188365 114.812 0.188365 114.812C0.188366 114.812 0.188366 114.812 0.188366 114.812C0.188367 114.812 0.188367 114.812 0.188367 114.812C0.188368 114.812 0.188368 114.812 0.188369 114.812C0.188369 114.812 0.188369 114.812 0.18837 114.812C0.18837 114.812 0.18837 114.812 0.188371 114.812C0.188371 114.812 0.188371 114.812 0.188372 114.812C0.188372 114.812 0.188373 114.812 0.188373 114.812C0.188373 114.812 0.188374 114.812 0.188374 114.812C0.188374 114.812 0.188375 114.812 0.188375 114.812C0.188375 114.812 0.188376 114.812 0.188376 114.812C0.188376 114.812 0.188377 114.812 0.188377 114.812C0.188378 114.812 0.188378 114.812 0.188378 114.812C0.188379 114.812 0.188379 114.812 0.188379 114.812C0.18838 114.812 0.18838 114.812 0.18838 114.812C0.188381 114.812 0.188381 114.812 0.188382 114.812C0.188382 114.812 0.188382 114.812 0.188383 114.812C0.188383 114.812 0.188383 114.812 0.188384 114.812C0.188384 114.812 0.188384 114.812 0.188385 114.812C0.188385 114.812 0.188385 114.812 0.188386 114.812C0.188386 114.812 0.188387 114.812 0.188387 114.812C0.188387 114.812 0.188388 114.812 0.188388 114.812C0.188388 114.812 0.188389 114.812 0.188389 114.812C0.188389 114.812 0.18839 114.812 0.18839 114.812C0.188391 114.812 0.188391 114.812 0.188391 114.812C0.188392 114.812 0.188392 114.812 0.188392 114.812C0.188393 114.812 0.188393 114.812 0.188393 114.812C0.188394 114.812 0.188394 114.812 0.188394 114.812C0.188395 114.812 0.188395 114.812 0.188396 114.812C0.188396 114.812 0.188396 114.812 0.188397 114.812C0.188397 114.812 0.188397 114.812 0.188398 114.812C0.188398 114.812 0.188398 114.812 0.188399 114.812C0.188399 114.812 0.1884 114.812 0.1884 114.812C0.1884 114.812 0.188401 114.812 0.188401 114.812C0.188401 114.812 0.188402 114.812 0.188402 114.812C0.188402 114.812 0.188403 114.812 0.188403 114.812C0.188403 114.812 0.188404 114.812 0.188404 114.812C0.188405 114.812 0.188405 114.812 0.188405 114.812C0.188406 114.812 0.188406 114.812 0.188406 114.812C0.188407 114.812 0.188407 114.812 0.188407 114.812C0.188408 114.812 0.188408 114.812 0.188409 114.812C0.188409 114.812 0.188409 114.812 0.18841 114.812C0.18841 114.812 0.18841 114.812 0.188411 114.812C0.188411 114.812 0.188411 114.812 0.188412 114.812C0.188412 114.812 0.188412 114.812 0.188413 114.812C0.188413 114.812 0.188414 114.812 0.188414 114.812C0.188414 114.812 0.188415 114.812 0.188415 114.812C0.188415 114.812 0.188416 114.812 0.188416 114.812C0.188416 114.812 0.188417 114.812 0.188417 114.812C0.188418 114.812 0.188418 114.812 0.188418 114.812C0.188419 114.812 0.188419 114.812 0.188419 114.812C0.18842 114.812 0.18842 114.812 0.18842 114.812C0.188421 114.812 0.188421 114.812 0.188421 114.812C0.188422 114.812 0.188422 114.812 0.188423 114.812C0.188423 114.812 0.188423 114.812 0.188424 114.812C0.188424 114.812 0.188424 114.812 0.188425 114.812C0.188425 114.812 0.188425 114.812 0.188426 114.812C0.188426 114.812 0.188427 114.812 0.188427 114.812C0.188427 114.812 0.188428 114.812 0.188428 114.812C0.188428 114.812 0.188429 114.812 0.188429 114.812C0.188429 114.812 0.18843 114.812 0.18843 114.812C0.18843 114.812 0.188431 114.812 0.188431 114.812C0.188432 114.812 0.188432 114.812 0.188432 114.812C0.188433 114.812 0.188433 114.812 0.188433 114.812C0.188434 114.812 0.188434 114.812 0.188434 114.812C0.188435 114.812 0.188435 114.812 0.188436 114.812C0.188436 114.812 0.188436 114.812 0.188437 114.812C0.188437 114.812 0.188437 114.812 0.188438 114.812C0.188438 114.812 0.188438 114.812 0.188439 114.812C0.188439 114.812 0.18844 114.812 0.18844 114.812C0.18844 114.812 0.188441 114.812 0.188441 114.812C0.188441 114.812 0.188442 114.812 0.188442 114.812C0.188442 114.812 0.188443 114.812 0.188443 114.812C0.188443 114.812 0.188444 114.812 0.188444 114.812C0.188445 114.812 0.188445 114.812 0.188445 114.812C0.188446 114.812 0.188446 114.812 0.188446 114.812C0.188447 114.812 0.188447 114.812 0.188447 114.812C0.188448 114.812 0.188448 114.812 0.188449 114.812C0.188449 114.812 0.188449 114.812 0.18845 114.812C0.18845 114.812 0.18845 114.812 0.188451 114.812C0.188451 114.812 0.188451 114.812 0.188452 114.812C0.188452 114.812 0.188452 114.812 0.188453 114.812C0.188453 114.812 0.188454 114.812 0.188454 114.812C0.188454 114.812 0.188455 114.812 0.188455 114.812C0.188455 114.812 0.188456 114.812 0.188456 114.812C0.188456 114.812 0.188457 114.812 0.188457 114.812C0.188458 114.812 0.188458 114.812 0.188458 114.812C0.188459 114.812 0.188459 114.812 0.188459 114.812C0.18846 114.812 0.18846 114.812 0.18846 114.812C0.188461 114.812 0.188461 114.812 0.188461 114.812C0.188462 114.812 0.188462 114.812 0.188463 114.812C0.188463 114.812 0.188463 114.812 0.188464 114.812C0.188464 114.812 0.188464 114.812 0.188465 114.812C0.188465 114.812 0.188465 114.812 0.188466 114.812C0.188466 114.812 0.188467 114.812 0.188467 114.812C0.188467 114.812 0.188468 114.812 0.188468 114.812C0.188468 114.812 0.188469 114.812 0.188469 114.812C0.188469 114.812 0.18847 114.812 0.18847 114.812C0.18847 114.812 0.188471 114.812 0.188471 114.812C0.188472 114.812 0.188472 114.812 0.188472 114.812C0.188473 114.812 0.188473 114.812 0.188473 114.812C0.188474 114.812 0.188474 114.812 0.188474 114.812C0.188475 114.812 0.188475 114.812 0.188476 114.812C0.188476 114.812 0.188476 114.812 0.188477 114.812C0.188477 114.812 0.188477 114.812 0.188478 114.812C0.188478 114.812 0.188478 114.812 0.188479 114.812C0.188479 114.812 0.188479 114.812 0.18848 114.812C0.18848 114.812 0.188481 114.812 0.188481 114.812C0.188481 114.812 0.188482 114.812 0.188482 114.812C0.188482 114.812 0.188483 114.812 0.188483 114.812C0.188483 114.812 0.188484 114.812 0.188484 114.812C0.188485 114.812 0.188485 114.812 0.188485 114.812C0.188486 114.812 0.188486 114.812 0.188486 114.812C0.188487 114.812 0.188487 114.812 0.188487 114.812C0.188488 114.812 0.188488 114.812 0.188488 114.812C0.188489 114.812 0.188489 114.812 0.18849 114.812C0.18849 114.812 0.18849 114.812 0.188491 114.812C0.188491 114.812 0.188491 114.812 0.188492 114.812C0.188492 114.812 0.188492 114.812 0.188493 114.812C0.188493 114.812 0.188494 114.812 0.188494 114.812C0.188494 114.812 0.188495 114.812 0.188495 114.812C0.188495 114.812 0.188496 114.812 0.188496 114.812C0.188496 114.812 0.188497 114.812 0.188497 114.812C0.188497 114.812 0.188498 114.812 0.188498 114.812C0.188499 114.812 0.188499 114.812 0.188499 114.812C0.1885 114.812 0.1885 114.812 0.1885 114.812C0.188501 114.812 0.188501 114.812 0.188501 114.812C0.188502 114.812 0.188502 114.812 0.188503 114.812C0.188503 114.812 0.188503 114.812 0.188504 114.812C0.188504 114.812 0.188504 114.812 0.188505 114.812C0.188505 114.812 0.188505 114.812 0.188506 114.812C0.188506 114.812 0.188506 114.812 0.188507 114.812C0.188507 114.812 0.188508 114.812 0.188508 114.812C0.188508 114.812 0.188509 114.812 0.188509 114.812C0.188509 114.812 0.18851 114.812 0.18851 114.812C0.18851 114.812 0.188511 114.812 0.188511 114.812C0.188512 114.812 0.188512 114.812 0.188512 114.812C0.188513 114.812 0.188513 114.812 0.188513 114.812C0.188514 114.812 0.188514 114.812 0.188514 114.812C0.188515 114.812 0.188515 114.812 0.188515 114.812C0.188516 114.812 0.188516 114.812 0.188517 114.812C0.188517 114.812 0.188517 114.812 0.188518 114.812C0.188518 114.812 0.188518 114.812 0.188519 114.812C0.188519 114.812 0.188519 114.812 0.18852 114.812C0.18852 114.812 0.188521 114.812 0.188521 114.812C0.188521 114.812 0.188522 114.812 0.188522 114.812C0.188522 114.812 0.188523 114.812 0.188523 114.812C0.188523 114.812 0.188524 114.812 0.188524 114.812C0.188524 114.812 0.188525 114.812 0.188525 114.812C0.188526 114.812 0.188526 114.812 0.188526 114.812C0.188527 114.812 0.188527 114.812 0.188527 114.812C0.188528 114.812 0.188528 114.812 0.188528 114.812C0.188529 114.812 0.188529 114.812 0.18853 114.812C0.18853 114.812 0.18853 114.812 0.188531 114.812C0.188531 114.812 0.188531 114.812 0.188532 114.812C0.188532 114.812 0.188532 114.812 0.188533 114.812C0.188533 114.812 0.188533 114.812 0.188534 114.812C0.188534 114.812 0.188535 114.812 0.188535 114.812C0.188535 114.812 0.188536 114.812 0.188536 114.812C0.188536 114.812 0.188537 114.812 0.188537 114.812C0.188537 114.812 0.188538 114.812 0.188538 114.812C0.188539 114.812 0.188539 114.812 0.188539 114.812C0.18854 114.812 0.18854 114.812 0.18854 114.812C0.188541 114.812 0.188541 114.812 0.188541 114.812V112.812ZM56.0001 57.0001C56.0001 87.824 31.0124 112.812 0.188541 112.812V114.812C32.117 114.812 58.0001 88.9285 58.0001 57.0001H56.0001ZM0.188541 1.18848C31.0124 1.18848 56.0001 26.1762 56.0001 57.0001H58.0001C58.0001 25.0716 32.117 -0.811523 0.188541 -0.811523V1.18848ZM0.187988 1.18848C0.188085 1.18848 0.18818 1.18848 0.188272 1.18848C0.188365 1.18848 0.188453 1.18848 0.188541 1.18848V-0.811523C0.188445 -0.811523 0.188349 -0.811523 0.188258 -0.811523C0.188165 -0.811523 0.188076 -0.811523 0.187988 -0.811523V1.18848ZM-0.812012 0.188477V113.812H1.18799V0.188477H-0.812012Z" fill="#DF991B" mask="url(#path-1-inside-1_2_197)"/>
</svg>
